<svg width="574" height="574" xmlns="http://www.w3.org/2000/svg" xmlns:xlink="http://www.w3.org/1999/xlink"><defs><circle id="a" cx="287" cy="287" r="287"/></defs><g fill="none" fill-rule="evenodd"><mask id="b" fill="#fff"><use xlink:href="#a"/></mask><use fill="#FFC6B9" xlink:href="#a"/><path d="M123 153h329c14.2 0 19.4 1.5 24.6 4.3a29 29 0 0112.1 12c2.8 5.3 4.3 10.5 4.3 24.7v421c0 14.2-1.5 19.4-4.3 24.6a29 29 0 01-12 12.1c-5.3 2.8-10.5 4.3-24.7 4.3H123c-14.2 0-19.4-1.5-24.6-4.3a29 29 0 01-12.1-12c-2.8-5.3-4.3-10.5-4.3-24.7V194c0-14.2 1.5-19.4 4.3-24.6a29 29 0 0112-12.1c5.3-2.8 10.5-4.3 24.7-4.3z" fill="#FF7658" mask="url(#b)"/><g mask="url(#b)"><path fill="#FFF" d="M113 190h22v20h-22zM113 243h22v20h-22zM113 296h22v20h-22zM113 349h22v20h-22zM113 402h22v20h-22z"/></g><g mask="url(#b)"><path fill="#FFF" d="M152 190h305v20H152zM152 243h305v20H152zM152 296h305v20H152zM152 349h305v20H152zM152 402h305v20H152z"/></g></g></svg>